<?xml version="1.0" encoding="utf-8"?>
<!-- Generator: Adobe Illustrator 16.0.0, SVG Export Plug-In . SVG Version: 6.00 Build 0)  -->
<!DOCTYPE svg PUBLIC "-//W3C//DTD SVG 1.1//EN" "http://www.w3.org/Graphics/SVG/1.1/DTD/svg11.dtd">
<svg version="1.1" xmlns="http://www.w3.org/2000/svg" xmlns:xlink="http://www.w3.org/1999/xlink" x="0px" y="0px" width="792px"
	 height="612px" viewBox="0 0 792 612" enable-background="new 0 0 792 612" xml:space="preserve">
<g id="Layer_1">
</g>
<g id="Layer_2" display="none">
	<rect x="76.75" y="242.166" display="inline" fill="none" width="634.375" height="247.917"/>
	
		<text transform="matrix(1 0 0 1 131.5068 360.3145)" display="inline" fill="#FFFFFF" stroke="#000000" stroke-width="11" stroke-miterlimit="10" font-family="'Hetilica-Bold'" font-size="139" letter-spacing="5">HELLO</text>
</g>
<g id="Layer_2_copy" display="none">
	<rect x="81.125" y="243.541" display="inline" fill="none" width="634.375" height="247.916"/>
	
		<text transform="matrix(1 0 0 1 139.8579 355.7402)" display="inline" fill="#FFFFFF" stroke="#6FA8DB" stroke-width="6" stroke-miterlimit="10" font-family="'Hetilica-Bold'" font-size="132" letter-spacing="9">HELLO</text>
</g>
<g id="Layer_2_copy_2" display="none">
	<rect x="91.542" y="240.167" display="inline" fill="none" width="634.375" height="247.916"/>
	
		<text transform="matrix(1 0 0 1 150.2749 352.3652)" display="inline" fill="#FFFFFF" stroke="#ED1C24" stroke-width="9" stroke-miterlimit="10" font-family="'Hetilica-Bold'" font-size="132" letter-spacing="9">HELLO</text>
</g>
<g id="Layer_2_copy_4">
	<g>
		<path fill="#FFFFFF" stroke="#000000" stroke-width="11" stroke-miterlimit="10" d="M252.715,265.238
			c1.668,0,2.919,0.649,3.753,1.946c-0.093,0.465-0.139,1.112-0.139,1.946c-0.464,3.336-0.858,6.672-1.181,10.008
			c-0.326,3.336-0.719,6.72-1.182,10.147c-1.112,9.823-2.224,19.578-3.336,29.259c-1.112,9.685-2.224,19.438-3.336,29.26
			c-1.021,1.854-2.363,3.336-4.031,4.447c-1.299,0.928-2.619,1.785-3.961,2.572c-1.344,0.788-2.758,1.507-4.239,2.154
			c-2.967,1.299-6.164,2.525-9.591,3.684c-3.429,1.157-6.765,1.737-10.008,1.737c-0.465,0-1.066,0-1.807,0
			c-0.743,0-1.483-0.048-2.224-0.14c-0.743-0.093-1.414-0.277-2.015-0.555c-0.604-0.279-0.997-0.743-1.182-1.391
			c-0.278-0.557-0.232-1.251,0.139-2.085c0.369-3.336,0.74-6.672,1.112-10.008c0.369-3.337,0.741-6.624,1.112-9.869
			c0.37-3.243,0.741-6.464,1.112-9.661c0.369-3.196,0.741-6.415,1.112-9.66c-1.39,0.278-2.78,0.417-4.17,0.417h-2.78h-34.055
			l-3.336,28.356c-1.021,1.854-2.363,3.336-4.031,4.447c-2.688,1.946-5.375,3.523-8.062,4.727c-2.967,1.299-6.186,2.525-9.66,3.684
			c-3.475,1.157-6.835,1.737-10.078,1.737c-0.465,0-1.042,0-1.738,0c-0.695,0-1.414-0.048-2.154-0.14
			c-0.743-0.093-1.412-0.277-2.016-0.555c-0.602-0.279-1.042-0.743-1.32-1.391c-0.278-0.557-0.23-1.251,0.139-2.085
			c0.464-3.336,0.858-6.672,1.181-10.008c0.326-3.337,0.673-6.624,1.042-9.869c1.204-9.821,2.363-19.599,3.475-29.329
			c1.112-9.73,2.224-19.505,3.336-29.329c1.019-1.853,2.363-3.336,4.031-4.448c1.203-0.647,2.409-1.436,3.614-2.363
			c2.409-1.296,4.841-2.454,7.298-3.475c2.454-1.019,5.025-1.898,7.714-2.641c1.946-0.556,4.007-1.019,6.186-1.39
			c2.176-0.369,4.331-0.417,6.463-0.139c1.668,0,2.919,0.649,3.753,1.946c0,0.371-0.024,0.695-0.069,0.973
			c-0.048,0.278-0.07,0.604-0.07,0.973c-0.371,3.336-0.743,6.672-1.112,10.008c-0.372,3.336-0.743,6.72-1.112,10.147
			c-0.278,1.946-0.535,3.892-0.765,5.838c-0.232,1.946-0.441,3.892-0.625,5.838h1.39h39.615c0.463-3.521,0.88-7.065,1.251-10.633
			c0.369-3.566,0.741-7.111,1.112-10.634c0.556-0.925,1.157-1.759,1.807-2.502c0.647-0.741,1.436-1.39,2.363-1.946
			c0.647-0.369,1.251-0.741,1.807-1.112c0.556-0.369,1.157-0.786,1.807-1.251c2.315-1.296,4.726-2.454,7.228-3.475
			c2.502-1.019,5.05-1.898,7.645-2.641c2.037-0.556,4.146-1.019,6.325-1.39C248.428,265.008,250.582,264.96,252.715,265.238z"/>
		<path fill="#FFFFFF" stroke="#000000" stroke-width="11" stroke-miterlimit="10" d="M352.378,330.568
			c0.277,0.742,0.254,1.646-0.069,2.711c-0.326,1.066-0.834,2.271-1.529,3.613c-0.695,1.345-1.414,2.596-2.154,3.754
			c-0.743,1.159-1.438,2.154-2.085,2.988c-0.649,0.834-1.066,1.344-1.251,1.529c-3.523,4.263-7.461,7.922-11.815,10.98
			c-1.299,0.928-2.78,1.854-4.448,2.779c-1.667,0.928-3.336,1.391-5.004,1.391h-0.973h-47.538c-2.411,0.557-4.726,0.834-6.95,0.834
			c-1.946,0.277-3.939,0.045-5.977-0.695c-1.299-0.646-1.668-1.713-1.112-3.197c0.369-4.354,0.741-8.663,1.112-12.926
			c0.37-4.262,0.787-8.57,1.251-12.928c0.278-2.594,0.556-5.164,0.834-7.715c0.278-2.547,0.556-5.164,0.834-7.854
			c-0.094-0.462-0.048-0.973,0.139-1.528c0.463-3.614,0.925-7.204,1.39-10.773c0.462-3.566,1.019-7.11,1.668-10.633
			c0.369-2.037,0.765-4.101,1.182-6.186s0.995-4.101,1.737-6.046c1.019-2.409,2.548-4.354,4.587-5.838
			c2.037-1.481,4.123-2.919,6.255-4.309c4.17-2.687,8.594-4.98,13.275-6.88c4.678-1.898,9.521-2.989,14.525-3.267
			c0.741,0,1.783,0,3.127,0c1.342,0,2.433,0.326,3.267,0.973h36.974c1.759,0,2.571,0.764,2.433,2.293
			c-0.14,1.529-0.719,3.245-1.738,5.143c-1.021,1.9-2.133,3.708-3.336,5.421c-1.205,1.716-1.945,2.71-2.224,2.988
			c-1.762,2.04-3.614,3.961-5.56,5.769c-1.946,1.807-4.031,3.499-6.256,5.074c-1.298,1.021-2.758,1.97-4.378,2.849
			c-1.622,0.882-3.314,1.321-5.074,1.321h-21.267c-0.187,0.649-0.302,1.668-0.347,3.058c-0.048,1.39-0.117,2.411-0.208,3.058h34.611
			c1.759,0,2.547,0.625,2.362,1.876c-0.187,1.251-0.765,2.689-1.737,4.309c-0.973,1.623-2.063,3.151-3.267,4.587
			c-1.205,1.438-1.946,2.294-2.224,2.571c-1.762,2.039-3.638,3.962-5.63,5.77c-1.994,1.807-4.055,3.498-6.186,5.072
			c-1.299,1.021-2.78,1.414-4.448,1.182c-1.668-0.23-3.336-0.348-5.004-0.348h-11.954c0,0.279-0.024,0.695-0.069,1.252
			c-0.048,0.556-0.094,1.16-0.139,1.807c-0.048,0.649-0.069,1.251-0.069,1.807c0,0.557,0,0.973,0,1.252h48.232
			C351.356,329.457,352.1,329.828,352.378,330.568z"/>
		<path fill="#FFFFFF" stroke="#000000" stroke-width="11" stroke-miterlimit="10" d="M448.633,331.75
			c-0.139,1.529-0.719,3.244-1.737,5.143c-1.021,1.9-2.133,3.708-3.336,5.422c-1.205,1.715-1.946,2.71-2.224,2.988
			c-1.762,2.039-3.614,3.961-5.561,5.768c-1.946,1.808-4.031,3.5-6.255,5.074c-1.299,0.928-2.758,1.854-4.379,2.779
			c-1.622,0.928-3.313,1.391-5.073,1.391h-0.834h-47.26c-1.854,0.463-3.939,0.786-6.255,0.973h-0.974c-0.464,0-1.066,0-1.807,0
			c-0.742,0-1.483-0.047-2.224-0.139c-0.743-0.094-1.414-0.277-2.016-0.557c-0.604-0.277-1.043-0.74-1.32-1.389
			c-0.278-0.557-0.232-1.252,0.139-2.086c0.463-3.336,0.855-6.672,1.182-10.008c0.323-3.336,0.717-6.624,1.182-9.869
			c1.111-9.82,2.224-19.599,3.336-29.328c1.111-9.73,2.224-19.506,3.336-29.33c1.019-1.853,2.408-3.336,4.17-4.448
			c0.556-0.369,1.134-0.74,1.737-1.112c0.602-0.369,1.228-0.786,1.877-1.251c2.314-1.297,4.726-2.454,7.228-3.475
			c2.502-1.019,5.05-1.898,7.646-2.641c2.037-0.556,4.122-1.019,6.255-1.39c2.13-0.37,4.261-0.417,6.394-0.139
			c1.668,0,2.919,0.649,3.753,1.946v1.946c-0.465,3.336-0.882,6.672-1.251,10.008c-0.371,3.336-0.742,6.72-1.111,10.147
			c-0.743,6.95-1.529,13.831-2.363,20.641c-0.834,6.812-1.622,13.691-2.363,20.643H446.2
			C447.96,329.457,448.772,330.221,448.633,331.75z"/>
		<path fill="#FFFFFF" stroke="#000000" stroke-width="11" stroke-miterlimit="10" d="M541.205,331.75
			c-0.139,1.529-0.719,3.244-1.737,5.143c-1.021,1.9-2.133,3.708-3.336,5.422c-1.205,1.715-1.946,2.71-2.224,2.988
			c-1.762,2.039-3.614,3.961-5.561,5.768c-1.946,1.808-4.031,3.5-6.255,5.074c-1.299,0.928-2.758,1.854-4.379,2.779
			c-1.622,0.928-3.313,1.391-5.073,1.391h-0.834h-47.26c-1.854,0.463-3.939,0.786-6.255,0.973h-0.974c-0.464,0-1.066,0-1.807,0
			c-0.742,0-1.483-0.047-2.224-0.139c-0.743-0.094-1.414-0.277-2.016-0.557c-0.604-0.277-1.043-0.74-1.32-1.389
			c-0.278-0.557-0.232-1.252,0.139-2.086c0.463-3.336,0.855-6.672,1.182-10.008c0.323-3.336,0.717-6.624,1.182-9.869
			c1.111-9.82,2.224-19.599,3.336-29.328c1.111-9.73,2.224-19.506,3.336-29.33c1.019-1.853,2.408-3.336,4.17-4.448
			c0.556-0.369,1.134-0.74,1.737-1.112c0.602-0.369,1.228-0.786,1.877-1.251c2.314-1.297,4.726-2.454,7.228-3.475
			c2.502-1.019,5.05-1.898,7.646-2.641c2.037-0.556,4.122-1.019,6.255-1.39c2.13-0.37,4.261-0.417,6.394-0.139
			c1.668,0,2.919,0.649,3.753,1.946v1.946c-0.465,3.336-0.882,6.672-1.251,10.008c-0.371,3.336-0.742,6.72-1.111,10.147
			c-0.743,6.95-1.529,13.831-2.363,20.641c-0.834,6.812-1.622,13.691-2.363,20.643h47.677
			C540.532,329.457,541.345,330.221,541.205,331.75z"/>
		<path fill="#FFFFFF" stroke="#000000" stroke-width="11" stroke-miterlimit="10" d="M653.586,279.973
			c2.502,3.985,4.122,8.179,4.865,12.579c0.74,4.402,0.88,8.92,0.417,13.553c-0.928,7.784-3.499,14.712-7.715,20.78
			c-4.218,6.07-9.337,11.328-15.359,15.777c-6.024,4.447-12.627,8.131-19.808,11.05c-7.183,2.919-14.201,5.121-21.059,6.603
			c-5.746,1.297-11.491,1.807-17.235,1.529c-0.465,0-0.974,0-1.529,0s-1.066-0.048-1.529-0.139c-2.595-0.279-5.121-0.72-7.575-1.321
			c-2.456-0.602-4.844-1.411-7.158-2.433c-3.985-1.759-7.6-4.146-10.843-7.158c-3.244-3.01-5.838-6.463-7.783-10.355
			c-2.225-4.354-3.545-8.918-3.962-13.691c-0.417-4.771-0.091-9.474,0.973-14.108c1.066-4.633,2.759-9.081,5.074-13.344
			c2.314-4.261,5.143-8.062,8.479-11.398c5.745-5.838,12.232-10.655,19.46-14.456c7.229-3.799,14.734-6.811,22.519-9.035
			c6.485-1.853,13.135-2.964,19.946-3.336c6.811-0.369,13.413,0.556,19.808,2.78c4.17,1.483,7.992,3.592,11.467,6.324
			C648.513,272.907,651.362,276.174,653.586,279.973z M596.04,280.528c-1.483-0.369-3.105-0.647-4.865-0.834
			c-0.187,0-0.395-0.021-0.625-0.069c-0.232-0.046-0.441-0.069-0.626-0.069c-0.187,0.187-0.325,0.278-0.417,0.278l-0.834,0.834
			c-0.371,0.372-0.742,0.743-1.111,1.112c-0.372,0.372-0.743,0.789-1.112,1.251c-0.465,0.556-0.928,1.136-1.391,1.738
			c-0.464,0.604-0.927,1.181-1.39,1.737c-4.17,6.303-6.581,13.114-7.228,20.433c-0.188,5.004,0.508,9.8,2.085,14.387
			c1.574,4.587,4.03,8.735,7.367,12.44c3.982,3.985,8.802,6.858,14.455,8.617c1.481,0.372,3.059,0.65,4.727,0.834
			c0.278,0.094,0.74,0.14,1.39,0.14c0.185-0.185,0.324-0.278,0.417-0.278l0.834-0.834c0.369-0.369,0.741-0.74,1.112-1.111
			c0.369-0.369,0.74-0.787,1.112-1.252c0.462-0.555,0.925-1.111,1.39-1.668c0.463-0.556,0.925-1.157,1.39-1.807
			c3.893-5.93,6.255-12.462,7.089-19.599c0.092-0.185,0.14-0.417,0.14-0.695c0.185-5.004-0.511-9.821-2.085-14.456
			c-1.577-4.632-4.031-8.802-7.367-12.51C606.511,285.163,601.691,282.29,596.04,280.528z"/>
	</g>
</g>
<g id="Layer_2_copy_3">
	<g>
		<path fill="#FFFFFF" stroke="#6FA8DB" stroke-width="6" stroke-miterlimit="10" d="M254.962,265.452
			c1.584,0,2.772,0.617,3.564,1.848c-0.089,0.441-0.132,1.056-0.132,1.848c-0.441,3.168-0.815,6.336-1.122,9.504
			c-0.31,3.168-0.683,6.381-1.122,9.636c-1.056,9.329-2.112,18.591-3.168,27.787c-1.056,9.196-2.112,18.459-3.168,27.785
			c-0.969,1.762-2.244,3.168-3.828,4.225c-1.233,0.881-2.487,1.695-3.762,2.441c-1.277,0.749-2.62,1.432-4.026,2.047
			c-2.817,1.232-5.853,2.398-9.108,3.498c-3.257,1.099-6.425,1.649-9.504,1.649c-0.441,0-1.013,0-1.716,0
			c-0.706,0-1.409-0.046-2.112-0.132c-0.705-0.089-1.343-0.264-1.914-0.528c-0.573-0.264-0.946-0.705-1.122-1.319
			c-0.264-0.528-0.22-1.188,0.132-1.98c0.351-3.168,0.703-6.336,1.056-9.504c0.351-3.168,0.704-6.291,1.056-9.372
			c0.351-3.079,0.704-6.138,1.056-9.174c0.351-3.036,0.703-6.093,1.056-9.175c-1.32,0.265-2.64,0.396-3.96,0.396h-2.64h-32.34
			l-3.168,26.928c-0.969,1.762-2.244,3.168-3.828,4.225c-2.554,1.848-5.105,3.346-7.656,4.488c-2.817,1.232-5.874,2.398-9.174,3.498
			c-3.3,1.099-6.491,1.649-9.57,1.649c-0.441,0-0.99,0-1.65,0c-0.66,0-1.343-0.046-2.046-0.132
			c-0.706-0.089-1.341-0.264-1.914-0.528c-0.571-0.264-0.99-0.705-1.254-1.319c-0.264-0.528-0.219-1.188,0.132-1.98
			c0.441-3.168,0.815-6.336,1.122-9.504c0.31-3.168,0.64-6.291,0.99-9.372c1.143-9.327,2.244-18.612,3.3-27.853
			c1.056-9.24,2.112-18.523,3.168-27.852c0.967-1.759,2.244-3.168,3.828-4.224c1.143-0.614,2.287-1.363,3.432-2.244
			c2.287-1.231,4.597-2.331,6.93-3.3c2.331-0.967,4.773-1.803,7.326-2.508c1.848-0.528,3.805-0.967,5.874-1.32
			c2.066-0.351,4.113-0.396,6.138-0.132c1.584,0,2.772,0.617,3.564,1.848c0,0.353-0.023,0.66-0.066,0.924
			c-0.045,0.264-0.066,0.574-0.066,0.924c-0.353,3.168-0.705,6.336-1.056,9.504c-0.353,3.168-0.706,6.381-1.056,9.636
			c-0.264,1.848-0.507,3.696-0.726,5.544c-0.221,1.848-0.418,3.696-0.594,5.544h1.32h37.62c0.439-3.344,0.835-6.709,1.188-10.098
			c0.351-3.387,0.703-6.753,1.056-10.098c0.528-0.878,1.1-1.67,1.716-2.376c0.614-0.703,1.363-1.32,2.244-1.848
			c0.615-0.351,1.188-0.703,1.716-1.056c0.528-0.351,1.099-0.747,1.716-1.188c2.199-1.231,4.488-2.331,6.864-3.3
			c2.376-0.967,4.795-1.803,7.26-2.508c1.935-0.528,3.938-0.967,6.006-1.32C250.891,265.233,252.937,265.188,254.962,265.452z"/>
		<path fill="#FFFFFF" stroke="#6FA8DB" stroke-width="6" stroke-miterlimit="10" d="M354.225,327.492
			c0.266,0.705,0.242,1.563-0.064,2.574c-0.311,1.012-0.793,2.156-1.453,3.432c-0.66,1.276-1.342,2.465-2.045,3.563
			c-0.705,1.102-1.365,2.046-1.98,2.839c-0.617,0.791-1.014,1.275-1.188,1.451c-3.346,4.049-7.086,7.524-11.221,10.428
			c-1.232,0.881-2.641,1.762-4.224,2.641c-1.584,0.881-3.168,1.32-4.752,1.32h-0.924h-45.144c-2.29,0.527-4.488,0.791-6.6,0.791
			c-1.848,0.265-3.741,0.044-5.676-0.66c-1.233-0.613-1.584-1.627-1.056-3.035c0.351-4.136,0.703-8.228,1.056-12.276
			c0.351-4.046,0.747-8.139,1.188-12.276c0.264-2.462,0.528-4.904,0.792-7.326c0.264-2.418,0.528-4.904,0.792-7.457
			c-0.089-0.439-0.045-0.924,0.132-1.452c0.439-3.433,0.879-6.841,1.32-10.23c0.439-3.387,0.968-6.753,1.584-10.098
			c0.351-1.935,0.726-3.894,1.122-5.874s0.945-3.894,1.65-5.742c0.967-2.287,2.419-4.135,4.356-5.544
			c1.935-1.406,3.915-2.772,5.94-4.092c3.96-2.551,8.161-4.729,12.606-6.534c4.442-1.802,9.042-2.838,13.794-3.102
			c0.703,0,1.693,0,2.97,0c1.274,0,2.31,0.31,3.102,0.924h35.113c1.67,0,2.441,0.726,2.309,2.178
			c-0.131,1.452-0.682,3.082-1.648,4.884c-0.971,1.805-2.025,3.521-3.168,5.148c-1.145,1.629-1.85,2.574-2.113,2.838
			c-1.672,1.937-3.432,3.762-5.279,5.478s-3.828,3.323-5.939,4.818c-1.234,0.97-2.621,1.871-4.158,2.706
			c-1.541,0.837-3.148,1.254-4.818,1.254h-20.196c-0.177,0.617-0.287,1.584-0.33,2.904c-0.045,1.32-0.111,2.289-0.198,2.904h32.869
			c1.67,0,2.418,0.594,2.244,1.782c-0.178,1.188-0.727,2.553-1.65,4.092c-0.924,1.541-1.959,2.993-3.102,4.356
			c-1.146,1.365-1.85,2.178-2.113,2.441c-1.672,1.938-3.455,3.763-5.346,5.479c-1.893,1.717-3.851,3.322-5.874,4.818
			c-1.233,0.969-2.64,1.342-4.224,1.121c-1.584-0.218-3.168-0.329-4.752-0.329h-11.352c0,0.264-0.022,0.659-0.066,1.188
			c-0.045,0.527-0.088,1.101-0.132,1.715c-0.045,0.617-0.066,1.188-0.066,1.717c0,0.527,0,0.924,0,1.188h45.804
			C353.256,326.436,353.961,326.789,354.225,327.492z"/>
		<path fill="#FFFFFF" stroke="#6FA8DB" stroke-width="6" stroke-miterlimit="10" d="M450.253,328.613
			c-0.132,1.453-0.683,3.082-1.649,4.885c-0.97,1.805-2.025,3.521-3.169,5.147c-1.145,1.63-1.848,2.574-2.111,2.839
			c-1.673,1.936-3.433,3.762-5.28,5.478s-3.828,3.323-5.939,4.817c-1.233,0.881-2.62,1.762-4.158,2.641
			c-1.541,0.881-3.147,1.32-4.818,1.32h-0.792h-44.88c-1.762,0.439-3.741,0.746-5.94,0.924h-0.924c-0.441,0-1.013,0-1.716,0
			c-0.705,0-1.408-0.046-2.112-0.133c-0.705-0.088-1.343-0.264-1.914-0.527c-0.573-0.264-0.989-0.703-1.254-1.32
			c-0.264-0.527-0.221-1.188,0.133-1.98c0.438-3.168,0.813-6.336,1.121-9.504c0.308-3.168,0.681-6.29,1.122-9.371
			c1.057-9.327,2.112-18.612,3.168-27.853c1.057-9.24,2.112-18.523,3.168-27.852c0.968-1.759,2.288-3.168,3.96-4.224
			c0.528-0.351,1.077-0.704,1.65-1.056c0.571-0.351,1.165-0.747,1.782-1.188c2.198-1.231,4.488-2.331,6.864-3.3
			c2.376-0.967,4.795-1.803,7.26-2.508c1.935-0.528,3.914-0.967,5.939-1.32c2.023-0.351,4.047-0.396,6.072-0.132
			c1.584,0,2.772,0.617,3.564,1.848v1.848c-0.441,3.168-0.838,6.336-1.188,9.504c-0.353,3.168-0.705,6.381-1.056,9.636
			c-0.706,6.6-1.452,13.134-2.244,19.602c-0.792,6.468-1.541,13.002-2.244,19.602h45.276
			C449.613,326.436,450.385,327.162,450.253,328.613z"/>
		<path fill="#FFFFFF" stroke="#6FA8DB" stroke-width="6" stroke-miterlimit="10" d="M542.784,328.613
			c-0.132,1.453-0.683,3.082-1.649,4.885c-0.97,1.805-2.025,3.521-3.169,5.147c-1.145,1.63-1.848,2.574-2.111,2.839
			c-1.673,1.936-3.433,3.762-5.28,5.478s-3.828,3.323-5.939,4.817c-1.233,0.881-2.62,1.762-4.158,2.641
			c-1.541,0.881-3.147,1.32-4.818,1.32h-0.792h-44.88c-1.762,0.439-3.741,0.746-5.94,0.924h-0.924c-0.441,0-1.013,0-1.716,0
			c-0.705,0-1.408-0.046-2.112-0.133c-0.705-0.088-1.343-0.264-1.914-0.527c-0.573-0.264-0.989-0.703-1.254-1.32
			c-0.264-0.527-0.221-1.188,0.133-1.98c0.438-3.168,0.813-6.336,1.121-9.504c0.308-3.168,0.681-6.29,1.122-9.371
			c1.057-9.327,2.112-18.612,3.168-27.853c1.057-9.24,2.112-18.523,3.168-27.852c0.968-1.759,2.288-3.168,3.96-4.224
			c0.528-0.351,1.077-0.704,1.65-1.056c0.571-0.351,1.165-0.747,1.782-1.188c2.198-1.231,4.488-2.331,6.864-3.3
			c2.376-0.967,4.795-1.803,7.26-2.508c1.935-0.528,3.914-0.967,5.939-1.32c2.023-0.351,4.047-0.396,6.072-0.132
			c1.584,0,2.772,0.617,3.564,1.848v1.848c-0.441,3.168-0.838,6.336-1.188,9.504c-0.353,3.168-0.705,6.381-1.056,9.636
			c-0.706,6.6-1.452,13.134-2.244,19.602c-0.792,6.468-1.541,13.002-2.244,19.602h45.276
			C542.145,326.436,542.916,327.162,542.784,328.613z"/>
		<path fill="#FFFFFF" stroke="#6FA8DB" stroke-width="6" stroke-miterlimit="10" d="M654.125,279.444
			c2.376,3.785,3.914,7.767,4.619,11.946c0.704,4.181,0.836,8.471,0.396,12.87c-0.881,7.393-3.322,13.971-7.326,19.734
			c-4.005,5.764-8.866,10.758-14.586,14.981c-5.722,4.224-11.991,7.722-18.81,10.494c-6.821,2.772-13.487,4.863-19.998,6.271
			c-5.458,1.23-10.913,1.715-16.368,1.451c-0.441,0-0.924,0-1.452,0s-1.013-0.045-1.452-0.132c-2.465-0.264-4.863-0.683-7.194-1.254
			c-2.332-0.571-4.599-1.341-6.798-2.31c-3.784-1.671-7.217-3.938-10.296-6.799c-3.081-2.857-5.544-6.138-7.392-9.834
			c-2.112-4.135-3.366-8.469-3.762-13.002c-0.396-4.531-0.087-8.996,0.924-13.397c1.013-4.399,2.619-8.624,4.817-12.672
			c2.199-4.046,4.885-7.656,8.053-10.824c5.455-5.544,11.615-10.119,18.479-13.728c6.864-3.607,13.992-6.468,21.384-8.58
			c6.159-1.759,12.475-2.815,18.942-3.168c6.468-0.351,12.738,0.528,18.81,2.64c3.96,1.409,7.591,3.411,10.891,6.006
			C649.307,272.734,652.013,275.836,654.125,279.444z M599.477,279.972c-1.408-0.351-2.949-0.615-4.62-0.792
			c-0.177,0-0.375-0.021-0.594-0.066c-0.221-0.043-0.419-0.066-0.594-0.066c-0.178,0.177-0.31,0.264-0.396,0.264l-0.792,0.792
			c-0.353,0.353-0.705,0.706-1.056,1.056c-0.353,0.353-0.706,0.749-1.057,1.188c-0.441,0.528-0.88,1.079-1.319,1.65
			c-0.441,0.574-0.881,1.122-1.32,1.65c-3.96,5.985-6.249,12.453-6.864,19.404c-0.177,4.752,0.483,9.306,1.98,13.662
			c1.495,4.356,3.828,8.296,6.996,11.813c3.782,3.785,8.359,6.514,13.728,8.185c1.407,0.353,2.904,0.616,4.488,0.792
			c0.264,0.088,0.703,0.132,1.32,0.132c0.175-0.175,0.307-0.265,0.396-0.265l0.792-0.791c0.351-0.352,0.703-0.703,1.056-1.057
			c0.352-0.35,0.704-0.746,1.057-1.188c0.439-0.528,0.879-1.057,1.319-1.584c0.439-0.528,0.879-1.1,1.32-1.717
			c3.696-5.63,5.94-11.834,6.732-18.611c0.086-0.176,0.132-0.396,0.132-0.66c0.175-4.752-0.484-9.327-1.98-13.728
			c-1.497-4.399-3.827-8.359-6.996-11.88C609.42,284.373,604.843,281.645,599.477,279.972z"/>
	</g>
</g>
</svg>
