<svg xmlns="http://www.w3.org/2000/svg" xmlns:xlink="http://www.w3.org/1999/xlink" width="50" height="50" x="0" y="0" enable-background="new 0 0 50 50" version="1.1" viewBox="0 0 50 50" xml:space="preserve"><g id="xp4me"><path fill="#FF0808" stroke="#000" stroke-miterlimit="10" d="M44.5,25.75c0,4.832-3.918,8.75-8.75,8.75h-21.5 c-4.833,0-8.75-3.918-8.75-8.75v-0.5c0-4.833,3.917-8.75,8.75-8.75h21.5c4.832,0,8.75,3.917,8.75,8.75V25.75z"/><rect width="27.75" height="10.125" x="11" y="21.25" fill="none"/><text fill="#FFF" font-family="'ACaslonPro-Regular'" font-size="7" transform="matrix(1 0 0 1 12.7124 27.1582)">XP4ME</text></g><g id="qbudget" display="none"><rect width="49.739" height="19.649" x=".261" y="14.022" fill="#515252" stroke="#070707" stroke-miterlimit="10" stroke-width="1.025" display="inline"/><rect width="39.098" height="13.134" x="4.872" y="17.462" fill="#FFF" display="inline"/><rect width="48.689" height="13.038" y="16.545" fill="none" display="inline"/><text display="inline" transform="matrix(0.8688 0 0 1 5.6157 29.2832)"><tspan x="0" y="0" fill="#5FBA46" font-family="'BuiltTitlingRg-Bold'" font-size="10">q</tspan><tspan x="4.53" y="0" fill="#5FBA46" font-family="'BuiltTitlingRg-Bold'" font-size="14.5">BUDGET</tspan></text></g><g id="pivis" display="none"><ellipse cx="24.931" cy="24.75" fill="#D62027" display="inline" rx="22.069" ry="9.328"/><rect width="35.147" height="10.984" x="7.552" y="19.141" fill="none" display="inline"/><text fill="#FFF" stroke="#FFF" stroke-miterlimit="10" stroke-width=".421" display="inline" font-family="'BuffaloScript-Regular'" font-size="8.841" transform="matrix(1.17 0 0 1 8.2427 25.4883)">Pyvisualize</text></g></svg>