<?xml version="1.0" encoding="utf-8"?>
<!-- Generator: Adobe Illustrator 16.0.0, SVG Export Plug-In . SVG Version: 6.00 Build 0)  -->
<!DOCTYPE svg PUBLIC "-//W3C//DTD SVG 1.1//EN" "http://www.w3.org/Graphics/SVG/1.1/DTD/svg11.dtd">
<svg version="1.1" xmlns="http://www.w3.org/2000/svg" xmlns:xlink="http://www.w3.org/1999/xlink" x="0px" y="0px" width="350px"
	 height="250px" viewBox="0 0 350 250" enable-background="new 0 0 350 250" xml:space="preserve">
<g id="Layer_1">
</g>
<g id="XP4ME" display="none">
	<path display="inline" fill="#FFC50B" stroke="#000000" stroke-width="5" stroke-miterlimit="10" d="M342.5,122.161
		c0,63.513-31.262,125.339-73.577,125.339H80.637C38.314,247.5,0.5,185.674,0.5,122.161v-6.574C0.5,52.073,38.314,6.5,80.637,6.5
		h188.286c42.315,0,73.577,45.573,73.577,109.086V122.161z"/>
	<rect x="22.781" y="71.862" display="inline" fill="none" width="305.708" height="177.038"/>
	
		<text transform="matrix(0.6654 0 0 1 27.5249 164.5225)" display="inline" fill="#FFFFFF" stroke="#FFFAFA" stroke-width="6" stroke-miterlimit="10" font-family="'Audiowide-Regular'" font-size="109">XP4ME</text>
</g>
<g id="US_x5F_FINANC" display="none">
	<g id="Layer_8" display="inline">
		<rect x="8" y="77" fill="#007BC6" width="331" height="78"/>
		<rect x="17.5" y="88.5" fill="none" stroke="#F70000" stroke-width="3" stroke-miterlimit="10" width="309" height="58"/>
	</g>
	<g id="Layer_7" display="inline">
		<rect x="31.333" y="103.333" fill="none" width="284.667" height="39.333"/>
		<text transform="matrix(1 0 0 1 31.3335 126.6289)" fill="#FFFFFF" font-family="'PollerOne-Regular'" font-size="27">US_FINANCE app</text>
	</g>
</g>
<g id="Croptyoshka" display="none">
	<rect x="11.334" y="103.333" display="inline" fill="none" width="336" height="146.667"/>
	<text transform="matrix(1 0 0 1 11.334 132.668)" display="inline" font-family="'PollerOne-Regular'" font-size="34">CROPTYOSHKA</text>
</g>
<g id="Pyvis" display="none">
	<path display="inline" fill="#D62027" d="M350,128.084c0,50.619-77.787,91.661-173.733,91.661
		c-95.954,0-173.737-41.042-173.737-91.661c0-50.625,77.783-91.662,173.737-91.662C272.213,36.422,350,77.459,350,128.084z"/>
	<rect x="39.448" y="72.975" display="inline" fill="none" width="276.694" height="107.928"/>
	
		<text transform="matrix(0.9374 0 0 1 44.894 135.3535)" display="inline" fill="#FFFFFF" stroke="#FFFFFF" stroke-width="3.703" stroke-miterlimit="10" font-family="'BuffaloScript-Regular'" font-size="86.8782">Pyvisualize</text>
</g>
<g id="qBudgt">
	
		<rect x="1.567" y="1.863" fill="#515252" stroke="#070707" stroke-width="9.4776" stroke-miterlimit="10" width="348.433" height="239.663"/>
	<rect x="33.87" y="43.82" fill="#FFFFFF" width="273.887" height="160.196"/>
	<rect x="-0.263" y="32.634" fill="none" width="341.08" height="159.03"/>
	<text transform="matrix(0.499 0 0 1 39.0771 188.0049)"><tspan x="0" y="0" fill="#5FBA46" font-family="'BuiltTitlingRg-Bold'" font-size="121.9724">q</tspan><tspan x="55.252" y="0" fill="#5FBA46" font-family="'BuiltTitlingRg-Bold'" font-size="176.8599">BUDGET</tspan></text>
</g>
</svg>
