<svg xmlns="http://www.w3.org/2000/svg" xmlns:xlink="http://www.w3.org/1999/xlink" width="350" height="250" x="0" y="0" enable-background="new 0 0 350 250" version="1.1" viewBox="0 0 350 250" xml:space="preserve"><g id="XP4ME" display="none"><path fill="#FFC50B" stroke="#000" stroke-miterlimit="10" stroke-width="5" d="M342.5,122.161 c0,63.513-31.262,125.339-73.577,125.339H80.637C38.314,247.5,0.5,185.674,0.5,122.161v-6.574C0.5,52.073,38.314,6.5,80.637,6.5 h188.286c42.315,0,73.577,45.573,73.577,109.086V122.161z" display="inline"/><rect width="305.708" height="177.038" x="22.781" y="71.862" fill="none" display="inline"/><text fill="#FFF" stroke="snow" stroke-miterlimit="10" stroke-width="6" display="inline" font-family="'Audiowide-Regular'" font-size="109" transform="matrix(0.6654 0 0 1 27.5249 164.5225)">XP4ME</text></g><g id="US_x5F_FINANC"><g id="Layer_8"><rect width="331" height="78" x="8" y="77" fill="#007BC6"/><rect width="309" height="58" x="17.5" y="88.5" fill="none" stroke="#F70000" stroke-miterlimit="10" stroke-width="3"/></g><g id="Layer_7"><rect width="284.667" height="39.333" x="31.333" y="103.333" fill="none"/><text fill="#FFF" font-family="'PollerOne-Regular'" font-size="27" transform="matrix(1 0 0 1 31.3335 126.6289)">US_FINANCE app</text></g></g><g id="Croptyoshka" display="none"><rect width="336" height="146.667" x="11.334" y="103.333" fill="none" display="inline"/><text display="inline" font-family="'PollerOne-Regular'" font-size="34" transform="matrix(1 0 0 1 11.334 132.668)">CROPTYOSHKA</text></g><g id="Pyvis" display="none"><path fill="#D62027" d="M350,128.084c0,50.619-77.787,91.661-173.733,91.661 c-95.954,0-173.737-41.042-173.737-91.661c0-50.625,77.783-91.662,173.737-91.662C272.213,36.422,350,77.459,350,128.084z" display="inline"/><rect width="276.694" height="107.928" x="39.448" y="72.975" fill="none" display="inline"/><text fill="#FFF" stroke="#FFF" stroke-miterlimit="10" stroke-width="3.703" display="inline" font-family="'BuffaloScript-Regular'" font-size="86.878" transform="matrix(0.9374 0 0 1 44.894 135.3535)">Pyvisualize</text></g><g id="qBudgt" display="none"><rect width="348.433" height="239.663" x="1.567" y="1.863" fill="#515252" stroke="#070707" stroke-miterlimit="10" stroke-width="9.478" display="inline"/><rect width="273.887" height="160.196" x="33.87" y="43.82" fill="#FFF" display="inline"/><rect width="341.08" height="159.03" x="-.263" y="32.634" fill="none" display="inline"/><text display="inline" transform="matrix(0.499 0 0 1 39.0771 188.0049)"><tspan x="0" y="0" fill="#5FBA46" font-family="'BuiltTitlingRg-Bold'" font-size="121.972">q</tspan><tspan x="55.252" y="0" fill="#5FBA46" font-family="'BuiltTitlingRg-Bold'" font-size="176.86">BUDGET</tspan></text></g></svg>