<?xml version="1.0" encoding="utf-8"?>
<!-- Generator: Adobe Illustrator 16.0.0, SVG Export Plug-In . SVG Version: 6.00 Build 0)  -->
<!DOCTYPE svg PUBLIC "-//W3C//DTD SVG 1.1//EN" "http://www.w3.org/Graphics/SVG/1.1/DTD/svg11.dtd">
<svg version="1.1" xmlns="http://www.w3.org/2000/svg" xmlns:xlink="http://www.w3.org/1999/xlink" x="0px" y="0px" width="792px"
	 height="612px" viewBox="0 0 792 612" enable-background="new 0 0 792 612" xml:space="preserve">
<g id="Layer_1">
</g>
<g id="Layer_2">
	
		<rect x="322.467" y="216.303" transform="matrix(0.9761 0.2171 -0.2171 0.9761 75.7053 -81.736)" fill="none" stroke="#000000" stroke-width="15" stroke-miterlimit="10" width="174.681" height="174.681"/>
	
		<rect x="247.011" y="253.255" transform="matrix(0.9761 0.2171 -0.2171 0.9761 81.9282 -64.4708)" fill="#FFFFFF" stroke="#000000" stroke-width="15" stroke-miterlimit="10" width="174.681" height="174.681"/>
	<g id="text">
		<rect x="222.792" y="475.833" fill="none" width="290.625" height="105.209"/>
		<text transform="matrix(1.08 0 0 1.05 300.8838 566.3184)"><tspan x="0" y="0" font-family="'BuiltTitlingLt-Regular'" font-size="103">ho</tspan><tspan x="58.993" y="0" font-family="'BuiltTitlingLt-Regular'" font-size="103">m</tspan><tspan x="99.548" y="0" font-family="'BuiltTitlingLt-Regular'" font-size="103">e</tspan></text>
	</g>
</g>
<g id="About" display="none">
	<rect x="112.667" y="133.125" display="inline" fill="#D6D3D2" width="566.667" height="295.834"/>
	<g id="Elements" display="inline">
		<circle cx="201.958" cy="216.458" r="66.667"/>
		<line x1="305.083" y1="178.958" x2="653" y2="178.958"/>
		<line x1="305.083" y1="216.458" x2="653" y2="216.458"/>
		<line x1="305.083" y1="264.375" x2="653" y2="264.375"/>
		<line x1="305.083" y1="311.25" x2="653" y2="311.25"/>
	</g>
	<g id="Text" display="inline">
		<rect x="111.333" y="435.208" fill="none" width="570.834" height="120.834"/>
		<text transform="matrix(1.08 0 0 1.05 321.4775 525.6934)"><tspan x="0" y="0" font-family="'BuiltTitlingLt-Regular'" font-size="103">A</tspan><tspan x="27.912" y="0" font-family="'BuiltTitlingLt-Regular'" font-size="103">b</tspan><tspan x="56.965" y="0" font-family="'BuiltTitlingLt-Regular'" font-size="103">o</tspan><tspan x="85.491" y="0" font-family="'BuiltTitlingLt-Regular'" font-size="103">u</tspan><tspan x="114.663" y="0" font-family="'BuiltTitlingLt-Regular'" font-size="103">t</tspan></text>
		<rect x="133.208" y="301.834" fill="none" width="131.25" height="104.208"/>
		<text transform="matrix(1.08 0 0 1.05 169.2705 392.3193)"><tspan x="0" y="0" font-family="'BuiltTitlingLt-Regular'" font-size="103">I.</tspan><tspan x="25.375" y="0" font-family="'BuiltTitlingLt-Regular'" font-size="103">D</tspan></text>
	</g>
</g>
</svg>
