<?xml version="1.0" encoding="utf-8"?>
<!-- Generator: Adobe Illustrator 16.0.0, SVG Export Plug-In . SVG Version: 6.00 Build 0)  -->
<!DOCTYPE svg PUBLIC "-//W3C//DTD SVG 1.1//EN" "http://www.w3.org/Graphics/SVG/1.1/DTD/svg11.dtd">
<svg version="1.1" id="Layer_1" xmlns="http://www.w3.org/2000/svg" xmlns:xlink="http://www.w3.org/1999/xlink" x="0px" y="0px"
	 width="792px" height="612px" viewBox="0 0 792 612" enable-background="new 0 0 792 612" xml:space="preserve">
<g id="Layer_1_1_">
</g>
<g id="Layer_2" display="none">
	
		<rect x="322.461" y="216.283" transform="matrix(-0.9761 -0.2171 0.2171 -0.9761 743.9006 688.9681)" display="inline" fill="none" stroke="#000000" stroke-width="15" stroke-miterlimit="10" width="174.672" height="174.672"/>
	
		<rect x="247.009" y="253.236" transform="matrix(-0.9761 -0.2171 0.2171 -0.9761 586.7739 745.6108)" display="inline" fill="#FFFFFF" stroke="#000000" stroke-width="15" stroke-miterlimit="10" width="174.673" height="174.673"/>
	<g id="text" display="inline">
		<rect x="222.792" y="475.833" fill="none" width="290.625" height="105.209"/>
		<text transform="matrix(1.0286 0 0 1 300.8838 566.3184)" font-family="'BuiltTitlingLt-Regular'" font-size="108.15">ho</text>
		<text transform="matrix(1.0286 0 0 1 364.5962 566.3184)" font-family="'BuiltTitlingLt-Regular'" font-size="108.15">m</text>
		<text transform="matrix(1.0286 0 0 1 408.3955 566.3184)" font-family="'BuiltTitlingLt-Regular'" font-size="108.15">e</text>
	</g>
</g>
<g id="About">
	<rect x="112.667" y="133.125" fill="#D6D3D2" width="566.667" height="295.834"/>
	<g id="Elements">
		<circle cx="201.958" cy="216.458" r="66.667"/>
		<line fill="none" x1="305.083" y1="178.958" x2="653" y2="178.958"/>
		<line fill="none" x1="305.083" y1="216.458" x2="653" y2="216.458"/>
		<line fill="none" x1="305.083" y1="264.375" x2="653" y2="264.375"/>
		<line fill="none" x1="305.083" y1="311.25" x2="653" y2="311.25"/>
	</g>
	<g id="Text">
		<rect x="111.333" y="435.208" fill="none" width="570.834" height="120.834"/>
		<text transform="matrix(1.0286 0 0 1 321.4775 525.6934)" font-family="'BuiltTitlingLt-Regular'" font-size="108.15">A</text>
		<text transform="matrix(1.0286 0 0 1 351.6226 525.6934)" font-family="'BuiltTitlingLt-Regular'" font-size="108.15">b</text>
		<text transform="matrix(1.0286 0 0 1 382.9995 525.6934)" font-family="'BuiltTitlingLt-Regular'" font-size="108.15">o</text>
		<text transform="matrix(1.0286 0 0 1 413.8076 525.6934)" font-family="'BuiltTitlingLt-Regular'" font-size="108.15">u</text>
		<text transform="matrix(1.0286 0 0 1 445.3135 525.6934)" font-family="'BuiltTitlingLt-Regular'" font-size="108.15">t</text>
		<rect x="133.208" y="301.834" fill="none" width="131.25" height="104.208"/>
		<text transform="matrix(1.0286 0 0 1 169.2705 392.3193)" font-family="'BuiltTitlingLt-Regular'" font-size="108.15">I.</text>
		<text transform="matrix(1.0286 0 0 1 196.6758 392.3193)" font-family="'BuiltTitlingLt-Regular'" font-size="108.15">D</text>
	</g>
</g>
<g id="Opensource">
</g>
</svg>
